<?xml version="1.0" standalone="no"?>
<!DOCTYPE svg PUBLIC "-//W3C//DTD SVG 20010904//EN"
 "http://www.w3.org/TR/2001/REC-SVG-20010904/DTD/svg10.dtd">
<svg version="1.0" xmlns="http://www.w3.org/2000/svg"
 width="512.000000pt" height="512.000000pt" viewBox="0 0 512.000000 512.000000"
 preserveAspectRatio="xMidYMid meet">
<metadata>
Created by potrace 1.14, written by Peter Selinger 2001-2017
</metadata>
<g transform="translate(0.000000,512.000000) scale(0.100000,-0.100000)"
fill="#000000" stroke="none">
<path d="M0 2560 l0 -2560 2560 0 2560 0 0 2560 0 2560 -2560 0 -2560 0 0
-2560z m2755 1946 c296 -46 525 -150 761 -349 235 -197 413 -455 511 -742 105
-306 122 -728 44 -1057 -132 -557 -548 -1025 -1069 -1205 -45 -15 -82 -31 -82
-35 0 -18 140 -226 214 -319 153 -191 300 -312 491 -405 124 -60 248 -98 380
-117 l90 -13 3 -39 3 -38 -98 7 c-308 21 -677 125 -1009 285 -302 146 -553
315 -822 553 -92 82 -116 97 -223 144 -287 125 -496 275 -662 474 -263 317
-387 687 -387 1159 0 488 153 883 472 1217 255 266 552 421 915 478 116 18
356 19 468 2z"/>
<path d="M2350 4324 c-218 -39 -383 -124 -521 -271 -180 -191 -287 -442 -346
-813 -26 -167 -26 -696 0 -855 52 -313 126 -521 254 -714 115 -174 249 -289
417 -357 222 -90 540 -82 760 20 359 165 579 546 636 1101 26 252 10 646 -36
880 -53 270 -157 517 -288 681 -83 106 -167 173 -291 235 -146 72 -229 91
-410 95 -82 1 -161 0 -175 -2z"/>
</g>
</svg>
